<svg xmlns="http://www.w3.org/2000/svg" xmlns:xlink="http://www.w3.org/1999/xlink" width="500" zoomAndPan="magnify" viewBox="0 0 375 374.999991" height="500" preserveAspectRatio="xMidYMid meet" version="1.0"><defs><clipPath id="bdcd466404"><path d="M 6 5.523438 L 200 5.523438 L 200 369 L 6 369 Z M 6 5.523438 " clip-rule="nonzero"/></clipPath></defs><g clip-path="url(#bdcd466404)"><path fill="#008236" d="M 199.589844 17.617188 C 199.589844 14.113281 198.070312 10.777344 195.421875 8.480469 C 192.773438 6.183594 189.261719 5.152344 185.789062 5.648438 L 37.273438 26.863281 C 19.402344 29.417969 6.128906 44.722656 6.128906 62.773438 L 6.128906 311.015625 C 6.128906 329.070312 19.402344 344.375 37.273438 346.925781 L 185.789062 368.144531 C 189.261719 368.640625 192.773438 367.605469 195.421875 365.308594 C 198.070312 363.011719 199.589844 359.679688 199.589844 356.171875 Z M 151.226562 162.710938 C 157.902344 162.710938 163.316406 168.125 163.316406 174.804688 L 163.316406 198.988281 C 163.316406 205.664062 157.902344 211.078125 151.226562 211.078125 C 144.546875 211.078125 139.132812 205.664062 139.132812 198.988281 L 139.132812 174.804688 C 139.132812 168.125 144.546875 162.710938 151.226562 162.710938 Z M 151.226562 162.710938 " fill-opacity="1" fill-rule="evenodd"/></g><path fill="#008236" d="M 223.773438 344.082031 L 284.230469 344.082031 C 304.265625 344.082031 320.503906 327.84375 320.503906 307.808594 L 320.503906 283.625 C 320.503906 276.949219 315.089844 271.535156 308.414062 271.535156 C 301.734375 271.535156 296.320312 276.949219 296.320312 283.625 L 296.320312 307.808594 C 296.320312 314.488281 290.910156 319.898438 284.230469 319.898438 L 223.773438 319.898438 Z M 223.773438 344.082031 " fill-opacity="1" fill-rule="nonzero"/><path fill="#008236" d="M 223.773438 53.890625 L 223.773438 29.707031 L 284.230469 29.707031 C 304.265625 29.707031 320.503906 45.949219 320.503906 65.980469 L 320.503906 90.164062 C 320.503906 96.84375 315.089844 102.257812 308.414062 102.257812 C 301.734375 102.257812 296.320312 96.84375 296.320312 90.164062 L 296.320312 65.980469 C 296.320312 59.304688 290.910156 53.890625 284.230469 53.890625 Z M 223.773438 53.890625 " fill-opacity="1" fill-rule="nonzero"/><path fill="#008236" d="M 316.960938 129.980469 C 312.242188 125.257812 304.585938 125.257812 299.863281 129.980469 C 295.140625 134.703125 295.140625 142.359375 299.863281 147.078125 L 327.585938 174.804688 L 235.863281 174.804688 C 229.1875 174.804688 223.773438 180.21875 223.773438 186.894531 C 223.773438 193.574219 229.1875 198.988281 235.863281 198.988281 L 327.585938 198.988281 L 299.863281 226.710938 C 295.140625 231.433594 295.140625 239.089844 299.863281 243.808594 C 304.585938 248.53125 312.242188 248.53125 316.960938 243.808594 L 365.304688 195.46875 C 367.503906 193.28125 368.871094 190.246094 368.871094 186.894531 C 368.871094 183.703125 367.632812 180.796875 365.609375 178.636719 L 365.507812 178.527344 L 365.328125 178.34375 Z M 316.960938 129.980469 " fill-opacity="1" fill-rule="nonzero"/></svg>