<?xml version="1.0" encoding="utf-8"?>
<!DOCTYPE svg PUBLIC "-//W3C//DTD SVG 1.1//EN" "http://www.w3.org/Graphics/SVG/1.1/DTD/svg11.dtd">
<svg version="1.1" id="Layer_1" xmlns="http://www.w3.org/2000/svg" xmlns:xlink="http://www.w3.org/1999/xlink" x="0px" y="0px"
	 viewBox="0 0 2560 1600" enable-background="new 0 0 2560 1600" xml:space="preserve">
<pattern  width="300" height="300" patternUnits="userSpaceOnUse" id="Polka_Dot_Pattern" viewBox="0 -300 300 300" overflow="visible">
	<g>
		<polygon fill="none" points="0,-300 300,-300 300,0 0,0 		"/>
		<path fill="#8367FF" d="M100-225c0,13.8071-11.1929,25-25,25s-25-11.1929-25-25s11.1929-25,25-25S100-238.8071,100-225z"/>
		<path fill="#FF0000" d="M100-75c0,13.8071-11.1929,25-25,25S50-61.1929,50-75s11.1929-25,25-25S100-88.8071,100-75z"/>
		<path fill="#F1FF00" d="M250-225c0,13.8071-11.1929,25-25,25s-25-11.1929-25-25s11.1929-25,25-25S250-238.8071,250-225z"/>
		<path fill="#FF00FF" d="M250-75c0,13.8071-11.1929,25-25,25s-25-11.1929-25-25s11.1929-25,25-25S250-88.8071,250-75z"/>
	</g>
</pattern>
<rect fill="url(#Polka_Dot_Pattern)" width="2560" height="1600"/>
</svg>
